<svg width="76" height="49" viewBox="0 0 76 49" fill="none" xmlns="http://www.w3.org/2000/svg">
<path d="M76 41.0384C76 43.0174 75.1103 44.9152 73.5267 46.3145C71.943 47.7138 69.7952 48.5 67.5556 48.5H50.6667V0H67.5556C69.7952 0 71.943 0.786123 73.5267 2.18543C75.1103 3.58474 76 5.48261 76 7.46153V41.0384Z" fill="#ED2939"/>
<path d="M8.44444 0C6.20484 0 4.05696 0.786123 2.47332 2.18543C0.88968 3.58474 0 5.48261 0 7.46153L0 41.0384C0 43.0174 0.88968 44.9152 2.47332 46.3145C4.05696 47.7138 6.20484 48.5 8.44444 48.5H25.3333V0H8.44444Z" fill="#002495"/>
<path d="M25.3333 0H50.6666V48.5H25.3333V0Z" fill="#EEEEEE"/>
</svg>
