<svg width="29" height="29" viewBox="0 0 29 29" fill="none" xmlns="http://www.w3.org/2000/svg">
<path fill-rule="evenodd" clip-rule="evenodd" d="M13.3594 0.471717C13.6619 0.169677 14.0722 0 14.5 0C14.9278 0 15.3381 0.169677 15.6406 0.471717L25.3205 10.1385L28.5471 13.3608C28.841 13.6646 29.0036 14.0716 28.9999 14.494C28.9963 14.9165 28.8266 15.3206 28.5275 15.6193C28.2283 15.918 27.8237 16.0874 27.4007 16.0911C26.9777 16.0948 26.5702 15.9324 26.2659 15.6389L25.7932 15.1668V25.7777C25.7932 26.6323 25.4532 27.4519 24.8481 28.0562C24.243 28.6605 23.4223 29 22.5666 29H17.7266C17.2987 29 16.8884 28.8303 16.5858 28.5281C16.2833 28.226 16.1133 27.8162 16.1133 27.3889V22.5555H12.8867V27.3889C12.8867 27.8162 12.7167 28.226 12.4142 28.5281C12.1116 28.8303 11.7012 29 11.2734 29H6.43343C5.57768 29 4.75697 28.6605 4.15186 28.0562C3.54675 27.4519 3.2068 26.6323 3.2068 25.7777V15.1668L2.7341 15.6389C2.42983 15.9324 2.0223 16.0948 1.59929 16.0911C1.17629 16.0874 0.77165 15.918 0.472529 15.6193C0.173407 15.3206 0.00373679 14.9165 6.09875e-05 14.494C-0.00361482 14.0716 0.158998 13.6646 0.452876 13.3608L3.6795 10.1385L13.3594 0.471717Z" fill="white"/>
</svg>
