<svg width="27" height="27" viewBox="0 0 27 27" fill="none" xmlns="http://www.w3.org/2000/svg">
<path d="M24.5705 14.8118C24.3029 16.8517 23.4852 18.7804 22.2049 20.3908C20.9245 22.0013 19.23 23.2329 17.3029 23.9536C15.3758 24.6742 13.2889 24.8566 11.2661 24.4813C9.24316 24.1061 7.36059 23.1872 5.82023 21.8233C4.27988 20.4594 3.13985 18.7019 2.52241 16.7394C1.90496 14.7768 1.83341 12.6832 2.31541 10.683C2.7974 8.68288 3.81478 6.85167 5.25842 5.38578C6.70205 3.9199 8.5175 2.87464 10.51 2.36211C16.0336 0.945445 21.7513 3.7887 23.8621 9.08703" stroke="white" stroke-width="2.83333" stroke-linecap="round" stroke-linejoin="round"/>
<path d="M24.6654 2.00372V9.08706H17.582" stroke="white" stroke-width="2.83333" stroke-linecap="round" stroke-linejoin="round"/>
</svg>
