<svg width="73" height="73" viewBox="0 0 73 73" fill="none" xmlns="http://www.w3.org/2000/svg">
<g clip-path="url(#clip0_8_21)">
<path d="M0 18.3696V26.3611H11.4123L0 18.3696ZM9.45756 62.8611H26.3611V51.025L9.45756 62.8611ZM46.6389 51.027V62.8611H63.5404L46.6389 51.027ZM0 46.6389V54.6304L11.4164 46.6389H0ZM63.5445 10.1389H46.6389V21.975L63.5445 10.1389ZM73 54.6324V46.6389H61.5816L73 54.6324ZM73 26.3611V18.3696L61.5856 26.3611H73ZM26.3611 10.1389H9.45756L26.3611 21.975V10.1389Z" fill="#00247D"/>
<path d="M50.9783 46.6389L70.6721 60.4298C71.6339 59.439 72.3251 58.2178 72.6796 56.8832L58.0492 46.6389H50.9783ZM26.3611 46.6389H22.0196L2.32789 60.4278C3.38436 61.5025 4.73891 62.271 6.25772 62.6279L26.3611 48.5511V46.6389ZM46.6389 26.3611H50.9804L70.6721 12.5722C69.5975 11.4818 68.2354 10.7189 66.7443 10.3721L46.6389 24.4489V26.3611ZM22.0196 26.3611L2.32789 12.5722C1.36663 13.5638 0.674872 14.7846 0.318359 16.1188L14.9488 26.3611H22.0196Z" fill="#CF1B2B"/>
<path d="M73 42.5833H42.5833V62.8611H46.6389V51.027L63.5404 62.8611H64.8889C65.9662 62.8613 67.0326 62.6463 68.0257 62.2288C69.0188 61.8113 69.9185 61.1997 70.6721 60.4298L50.9783 46.6389H58.0492L72.6796 56.8832C72.8682 56.1999 73 55.4922 73 54.75V54.6324L61.5816 46.6389H73V42.5833ZM0 42.5833V46.6389H11.4164L0 54.6304V54.75C0 56.9623 0.890194 58.9637 2.32789 60.4278L22.0196 46.6389H26.3611V48.5511L6.25772 62.6259C6.85389 62.7678 7.47033 62.8611 8.11111 62.8611H9.45756L26.3611 51.025V62.8611H30.4167V42.5833H0ZM73 18.25C73.0012 16.1248 72.1648 14.0848 70.6721 12.5722L50.9804 26.3611H46.6389V24.4489L66.7443 10.3721C66.1369 10.2231 65.5143 10.1448 64.8889 10.1389H63.5445L46.6389 21.975V10.1389H42.5833V30.4167H73V26.3611H61.5856L73 18.3696V18.25ZM26.3611 10.1389V21.975L9.45756 10.1389H8.11111C7.0336 10.1384 5.96687 10.3535 4.97369 10.7713C3.98051 11.1892 3.08093 11.8015 2.32789 12.5722L22.0196 26.3611H14.9488L0.318361 16.1188C0.117165 16.8117 0.010085 17.5285 0 18.25L0 18.3696L11.4123 26.3611H0V30.4167H30.4167V10.1389H26.3611Z" fill="#EEEEEE"/>
<path d="M42.5833 30.4167V10.1389H30.4167V30.4167H0V42.5833H30.4167V62.8611H42.5833V42.5833H73V30.4167H42.5833Z" fill="#CF1B2B"/>
</g>
<defs>
<clipPath id="clip0_8_21">
<rect width="73" height="73" fill="white"/>
</clipPath>
</defs>
</svg>
